<svg xmlns="http://www.w3.org/2000/svg" id="moex-logo-ru" viewBox="0 0 129 40" fill="none">
  <path
    d="M110.997 24.581L112.113 24.73C111.853 25.9963 110.811 26.6667 109.584 26.6667C107.686 26.6667 106.794 25.3259 106.794 23.5754C106.794 21.825 107.724 20.4842 109.621 20.4842C110.774 20.4842 111.629 21.0428 112.039 22.0857L110.96 22.5326C110.699 21.8994 110.253 21.4898 109.546 21.4898C108.319 21.4898 107.947 22.4581 107.947 23.5382C107.947 24.6555 108.393 25.6238 109.621 25.6238C110.402 25.6611 110.811 25.2886 110.997 24.581ZM71.3818 33.4823H72.8325C73.3905 33.4823 73.7996 33.1844 73.7996 32.6257C73.7996 32.067 73.3905 31.8063 72.8325 31.8063H71.3818V33.4823ZM70.2659 34.5251V28.5661H74.618V29.6089H71.3818V30.8007H72.9813C74.1716 30.8007 74.8784 31.3222 74.8784 32.6257C74.8784 33.8547 74.1344 34.5624 72.9813 34.5624H70.2659V34.5251ZM75.5851 34.5251V28.5661H76.701V33.5196H76.887L78.4121 28.5661H80.4952V34.5251H79.3792V29.5717H79.1932L77.7054 34.5251H75.5851ZM82.6526 31.5829H84.0289C84.6241 31.5829 84.996 31.1359 84.996 30.54C84.996 29.9441 84.6613 29.5717 84.0289 29.5717H82.6526V31.5829ZM81.5367 34.5251V28.5661H84.0289C85.2564 28.5661 86.112 29.311 86.112 30.5773C86.112 31.8436 85.2564 32.5885 84.0289 32.5885H82.6526V34.5251H81.5367ZM86.1492 34.5251L88.009 31.3594L86.1864 28.5661H87.5255L88.9018 30.9125H89.3481V28.5661H90.4641V30.9125H90.9104L92.2495 28.5661H93.5886L91.766 31.3594L93.6258 34.5251H92.3239L90.9104 31.9181H90.4641V34.5251H89.3481V31.9181H88.9018L87.4883 34.5251H86.1492ZM95.8205 31.9926H97.5316L96.7876 29.6089H96.5272L95.8205 31.9926ZM93.8862 34.5251L95.8949 28.5661H97.5316L99.5402 34.5251H98.3499L97.8663 32.9981H95.4857L95.0021 34.5251H93.8862ZM70.2659 26.5549V20.5959H72.3861L73.4277 25.5493H73.5764L74.5064 20.5959H76.6266V26.5549H75.5107V21.6387H75.3619L74.432 26.5922H72.5349L71.5306 21.6387H71.3818V26.5922H70.2659V26.5549ZM80.3092 25.6611C81.5367 25.6611 82.0574 24.73 82.0574 23.5754C82.0574 22.4209 81.4623 21.527 80.2348 21.527C79.0073 21.527 78.5237 22.4581 78.5237 23.5754C78.4865 24.6927 79.0445 25.6611 80.3092 25.6611ZM80.272 26.6667C78.4121 26.6667 77.3334 25.3259 77.3334 23.5754C77.3334 21.825 78.4121 20.4842 80.272 20.4842C82.1318 20.4842 83.2106 21.7877 83.2106 23.5754C83.2106 25.3259 82.1318 26.6667 80.272 26.6667ZM88.009 24.581L89.125 24.73C88.8646 25.9963 87.823 26.6667 86.5955 26.6667C84.6985 26.6667 83.8057 25.3259 83.8057 23.5754C83.8057 21.825 84.7357 20.4842 86.6327 20.4842C87.7858 20.4842 88.6414 21.0428 89.0506 22.0857L87.9718 22.5326C87.7115 21.8994 87.2651 21.4898 86.5583 21.4898C85.3308 21.4898 84.9588 22.4581 84.9588 23.5382C84.9588 24.6555 85.4052 25.6238 86.6327 25.6238C87.3767 25.6611 87.823 25.2886 88.009 24.581ZM89.9805 26.5549V20.5959H91.0964V22.905H91.6916L93.5142 20.5959H94.8905L92.6587 23.352L94.9649 26.5549H93.5886L91.6916 23.9479H91.0964V26.5549H89.9805ZM97.9035 25.6611C99.1311 25.6611 99.6518 24.73 99.6518 23.5754C99.6518 22.4209 99.0567 21.527 97.8291 21.527C96.6016 21.527 96.1181 22.4581 96.1181 23.5754C96.1181 24.6927 96.676 25.6611 97.9035 25.6611ZM97.9035 26.6667C96.0437 26.6667 95.0021 25.3259 95.0021 23.5754C95.0021 21.825 96.0437 20.4842 97.9035 20.4842C99.7634 20.4842 100.842 21.7877 100.842 23.5754C100.842 25.3259 99.7634 26.6667 97.9035 26.6667ZM102.702 23.0168H104.153C104.636 23.0168 105.008 22.7933 105.008 22.3091C105.008 21.7877 104.673 21.6015 104.153 21.6015H102.702V23.0168ZM102.702 25.5493H104.227C104.748 25.5493 105.157 25.3631 105.157 24.8045C105.157 24.2458 104.785 24.0223 104.227 24.0223H102.702V25.5493ZM101.586 26.5549V20.5959H104.301C105.269 20.5959 106.05 21.0056 106.05 22.0484C106.05 22.7561 105.789 23.2775 105.157 23.5009C105.827 23.6871 106.199 24.2086 106.199 24.9162C106.199 25.9963 105.417 26.5549 104.376 26.5549H101.586ZM113.006 26.5549V20.5959H114.122V22.905H114.717L116.539 20.5959H117.916L115.721 23.3892L118.027 26.5549H116.651L114.754 23.9479H114.159V26.5549H113.006ZM120.11 24.0223H121.821L121.078 21.6387H120.817L120.11 24.0223ZM118.176 26.5549L120.185 20.5959H121.821L123.83 26.5549H122.64L122.156 25.0279H119.776L119.292 26.5549H118.176ZM127.885 23.3147V21.6387H126.583C125.988 21.6387 125.578 21.825 125.578 22.4581C125.578 23.0912 125.988 23.2775 126.583 23.2775H127.885V23.3147ZM124.351 26.5549L124.611 24.9534C124.686 24.432 124.946 24.0596 125.43 23.8361C124.797 23.5754 124.388 22.9795 124.388 22.3091C124.388 21.1918 125.43 20.6331 126.434 20.6331H128.926V26.5922H127.81V24.2831H126.508C125.988 24.2831 125.764 24.4693 125.69 25.0279L125.43 26.5549H124.351ZM0 40V15.0093H24.9594V0H64.8723V40H0Z"
    fill="#FF0508"/>
  <path
    d="M13.583 32.1092H13.0251L10.4584 20.6381H5.73438V34.5673H8.1894V23.0217H8.71017L11.2024 34.4928H15.4057L17.9351 23.0217H18.4559V34.4928H20.9481V20.6008H16.1868L13.583 32.1092ZM38.7285 34.5301H47.4327V32.1092H41.2579V28.6455H46.5771V26.3364H41.2579V23.0589H47.4327V20.6381H38.7285V34.5301ZM29.8383 32.4444C27.0113 32.4444 25.6722 30.3215 25.6722 27.5654C25.6722 24.8094 26.9741 22.6865 29.8383 22.6865C32.6653 22.6865 34.0044 24.8094 34.0044 27.5654C34.0044 30.3215 32.6653 32.4444 29.8383 32.4444ZM29.8383 20.2656C25.5978 20.2656 23.1056 23.2079 23.1056 27.5282C23.1056 31.8485 25.5978 34.9025 29.8383 34.9025C34.0788 34.9025 36.571 31.8485 36.571 27.5282C36.571 23.2079 34.116 20.2656 29.8383 20.2656ZM49.1809 34.5301H51.8591L54.8721 29.018L58.1083 34.5301H60.7865L56.4716 27.2302L60.5261 20.6008H57.8479L55.0209 25.5543L52.1567 20.6008H49.4785L53.347 27.1558L49.1809 34.5301Z"
    fill="white"/>
</svg>
